Coordinates
version=1
nRows=14
nColumns=40
inDegrees=yes

Units are S.I. units (second, meters, Newtons, ...)
If the header above contains a line with 'inDegrees', this indicates whether rotational values are in degrees (yes) or radians (no).

endheader
time	pelvis_tilt	pelvis_list	pelvis_rotation	pelvis_tx	pelvis_ty	pelvis_tz	hip_flexion_r	hip_adduction_r	hip_rotation_r	knee_angle_r	knee_angle_r_beta	ankle_angle_r	subtalar_angle_r	mtp_angle_r	hip_flexion_l	hip_adduction_l	hip_rotation_l	knee_angle_l	knee_angle_l_beta	ankle_angle_l	subtalar_angle_l	mtp_angle_l	lumbar_extension	lumbar_bending	lumbar_rotation	arm_flex_r	arm_add_r	arm_rot_r	elbow_flex_r	pro_sup_r	wrist_flex_r	wrist_dev_r	arm_flex_l	arm_add_l	arm_rot_l	elbow_flex_l	pro_sup_l	wrist_flex_l	wrist_dev_l
      6.28500000	    -39.27645854	      0.65579640	     -3.56407872	      0.05661873	      0.65455999	     -1.19971900	     92.93784728	    -14.00304943	    -12.26849712	     66.32663624	      1.15761818	     10.79862139	     -8.44321713	      0.00000000	     95.31346905	    -23.44684452	    -10.94664448	     72.09164756	      1.25823661	      8.81207239	     -3.39116486	      0.00000000	     -3.16581181	     -5.78086885	      1.16405637	    -15.54053182	     -3.21113035	    -82.86104744	    125.47764631	     45.00000026	      0.00000000	      0.00000000	    -29.56395913	    -20.97499176	    -86.52250814	    135.67346300	     45.00000026	      0.00000000	      0.00000000
      6.29000000	    -39.24318749	      0.65704026	     -3.55144768	      0.05694138	      0.65566799	     -1.19988345	     92.70424390	    -13.98381051	    -12.29127722	     66.05829260	      1.15293470	     10.69588172	     -8.47829263	      0.00000000	     95.07103428	    -23.37417749	    -11.01939836	     71.84670181	      1.25396150	      8.74445846	     -3.42374654	      0.00000000	     -3.14434841	     -5.79204764	      1.30852357	    -15.95752801	     -3.16756228	    -83.06695604	    125.38915667	     45.00000026	      0.00000000	      0.00000000	    -29.41272262	    -21.07577794	    -86.40704877	    135.78289186	     45.00000026	      0.00000000	      0.00000000
      6.29500000	    -39.11822674	      0.82928386	     -3.68124228	      0.05735275	      0.65695687	     -1.19967218	     92.42943522	    -13.79558265	    -12.12196873	     65.77482892	      1.14798733	     10.59346638	     -8.47699342	      0.00000000	     94.62662247	    -23.52952827	    -11.34846488	     71.60381581	      1.24972234	      8.75095400	     -3.30673374	      0.00000000	     -3.20594930	     -5.97566795	      1.33120809	    -16.15279547	     -3.14023085	    -82.84646939	    125.60167345	     45.00000026	      0.00000000	      0.00000000	    -29.77521897	    -21.07599090	    -86.53971518	    135.61744248	     45.00000026	      0.00000000	      0.00000000
      6.30000000	    -39.03161936	      0.82099485	     -3.66587694	      0.05773650	      0.65818839	     -1.19986684	     92.12596577	    -13.79219481	    -12.16399960	     65.49942653	      1.14318065	     10.52803904	     -8.44948103	      0.00000000	     94.31596451	    -23.46553370	    -11.44265759	     71.35570929	      1.24539207	      8.69963234	     -3.30383756	      0.00000000	     -3.26217835	     -5.95263834	      1.36587229	    -16.47066395	     -3.03329386	    -82.90822526	    125.63417343	     45.00000026	      0.00000000	      0.00000000	    -29.79848970	    -21.06432724	    -86.51886880	    135.62602385	     45.00000026	      0.00000000	      0.00000000
      6.30500000	    -39.00400319	      0.84730194	     -3.65167381	      0.05796645	      0.65926027	     -1.20007062	     91.91464478	    -13.77043793	    -12.14822876	     65.23100516	      1.13849581	     10.44106432	     -8.46904925	      0.00000000	     94.06757957	    -23.38330106	    -11.54643549	     71.09788394	      1.24089217	      8.62938253	     -3.35974465	      0.00000000	     -3.33160685	     -5.75044354	      1.66409623	    -17.42265255	     -2.78631497	    -83.01684277	    126.29161480	     45.00000026	      0.00000000	      0.00000000	    -29.30359495	    -21.28255577	    -86.36736249	    135.01778470	     45.00000026	      0.00000000	      0.00000000
      6.31000000	    -38.89501501	      0.98844509	     -3.79348600	      0.05831046	      0.66054063	     -1.19990525	     91.63897637	    -13.56591916	    -11.99906712	     64.91588694	      1.13299596	     10.31814534	     -8.49659144	      0.00000000	     93.65980201	    -23.52453488	    -11.83199759	     70.85544414	      1.23666079	      8.62637421	     -3.29100674	      0.00000000	     -3.38928156	     -5.94978403	      1.84784610	    -17.63942397	     -2.73192563	    -83.11643154	    126.21739159	     45.00000026	      0.00000000	      0.00000000	    -29.50615980	    -21.36263174	    -86.33995646	    135.07338445	     45.00000026	      0.00000000	      0.00000000
      6.31500000	    -38.81955215	      0.76354322	     -3.55164794	      0.05869564	      0.66178683	     -1.20071884	     91.24000669	    -13.86698744	    -12.33455889	     64.64392976	      1.12824942	     10.31733451	     -8.32858806	      0.00000000	     93.45627339	    -23.15470842	    -11.64980746	     70.57476574	      1.23176203	      8.55285661	     -3.32775415	      0.00000000	     -3.39796821	     -5.84515839	      1.46434544	    -17.30205535	     -3.03396344	    -83.26420365	    125.67166800	     45.00000026	      0.00000000	      0.00000000	    -30.01686065	    -21.03294746	    -86.41014336	    135.81502669	     45.00000026	      0.00000000	      0.00000000
      6.32000000	    -38.67126047	      1.10495966	     -3.88580707	      0.05902344	      0.66314296	     -1.20009845	     90.99423222	    -13.41414278	    -11.93757340	     64.29087352	      1.12208742	     10.15908429	     -8.43698634	      0.00000000	     92.89098361	    -23.56083133	    -12.22025390	     70.32673271	      1.22743304	      8.57941590	     -3.17296037	      0.00000000	     -3.49149622	     -6.27005430	      1.83184656	    -17.63716182	     -2.83599656	    -83.22181244	    125.68770202	     45.00000026	      0.00000000	      0.00000000	    -30.25456346	    -21.21507203	    -86.46371096	    135.73442426	     45.00000026	      0.00000000	      0.00000000
      6.32500000	    -38.78644766	      0.99151265	     -3.69195640	      0.05901412	      0.66396451	     -1.20081093	     90.89798135	    -13.60091116	    -12.06933943	     64.02866352	      1.11751099	     10.00973340	     -8.46371998	      0.00000000	     92.90097322	    -23.18840270	    -12.06434065	     70.04714601	      1.22255333	      8.40479283	     -3.37457035	      0.00000000	     -3.33305047	     -5.84167812	      1.75486593	    -18.38501834	     -2.79809406	    -82.89169892	    126.49291983	     45.00000026	      0.00000000	      0.00000000	    -30.04928742	    -21.23945497	    -86.46040454	    135.09181234	     45.00000026	      0.00000000	      0.00000000
      6.33000000	    -38.52414122	      0.97949094	     -3.64191038	      0.05963275	      0.66560460	     -1.20118160	     90.35603946	    -13.70810629	    -12.18978821	     63.72606131	      1.11222959	     10.06272953	     -8.21083975	      0.00000000	     92.33846109	    -23.12178977	    -12.27053718	     69.76339740	      1.21760098	      8.45448682	     -3.25573408	      0.00000000	     -3.62144110	     -6.01248274	      1.58872889	    -18.01940384	     -2.95317762	    -83.20278172	    125.89870864	     45.00000026	      0.00000000	      0.00000000	    -30.62328213	    -20.98275679	    -86.49925373	    135.72728078	     45.00000026	      0.00000000	      0.00000000
      6.33500000	    -38.41976554	      1.16863777	     -3.82559704	      0.05990536	      0.66692225	     -1.20097905	     90.08820204	    -13.44861041	    -11.98173090	     63.36562690	      1.10593882	      9.91862141	     -8.29897798	      0.00000000	     91.90074195	    -23.29287938	    -12.61195057	     69.49010652	      1.21283116	      8.42588189	     -3.17858057	      0.00000000	     -3.64469128	     -6.26674002	      1.65979868	    -17.91462371	     -2.97475331	    -83.14882085	    125.89170237	     45.00000026	      0.00000000	      0.00000000	    -31.15890441	    -20.91175765	    -86.62299215	    135.79653041	     45.00000026	      0.00000000	      0.00000000
      6.34000000	    -38.37025394	      1.10387212	     -3.69460036	      0.06018132	      0.66813794	     -1.20155976	     89.78805619	    -13.60934087	    -12.13122371	     63.07070015	      1.10079138	      9.84037097	     -8.23706332	      0.00000000	     91.64966444	    -23.04479184	    -12.61030652	     69.19662793	      1.20770899	      8.35381044	     -3.24135297	      0.00000000	     -3.71043265	     -6.12906600	      1.63005935	    -18.28188288	     -2.97372483	    -83.24050336	    125.93860860	     45.00000026	      0.00000000	      0.00000000	    -31.19678978	    -20.87918592	    -86.55611269	    135.83458221	     45.00000026	      0.00000000	      0.00000000
      6.34500000	    -38.34438051	      1.14686566	     -3.69378002	      0.06036581	      0.66934404	     -1.20179684	     89.55337700	    -13.56152676	    -12.08383524	     62.73524550	      1.09493659	      9.71952178	     -8.23098667	      0.00000000	     91.37077245	    -22.97306380	    -12.75293548	     68.89688627	      1.20247751	      8.26523867	     -3.26041005	      0.00000000	     -3.67354665	     -6.13995786	      1.59063528	    -18.33329391	     -3.04133583	    -83.23127037	    126.02643938	     45.00000026	      0.00000000	      0.00000000	    -31.54835090	    -20.79046386	    -86.63574265	    135.78937944	     45.00000026	      0.00000000	      0.00000000
      6.35000000	    -38.29730032	      1.05149639	     -3.56010737	      0.06064932	      0.67062132	     -1.20236046	     89.21776724	    -13.70202710	    -12.24905893	     62.40404656	      1.08915608	      9.67578663	     -8.11491371	      0.00000000	     91.12249185	    -22.73562890	    -12.72949902	     68.58588788	      1.19704956	      8.20950704	     -3.27922113	      0.00000000	     -3.70754358	     -6.08492722	      1.38827813	    -18.35187762	     -3.20859976	    -83.19121801	    125.77992595	     45.00000026	      0.00000000	      0.00000000	    -31.98469073	    -20.59012375	    -86.71421364	    136.09983770	     45.00000026	      0.00000000	      0.00000000
